<svg width="259" height="264" fill="none" xmlns="http://www.w3.org/2000/svg"><path d="M90.2 168.2a8.8 8.8 0 0 1-2.3-8.4l8.7-34A32 32 0 0 1 105 111l90-90A29.6 29.6 0 1 1 236.8 63l-91.3 89.5a32 32 0 0 1-13.2 7.8l-33.3 10c-3 1-6.4.1-8.7-2.2Z" fill="#D0D1D4"/><path d="M90.2 168.2a8.8 8.8 0 0 1-2.3-8.4l8.7-34A32 32 0 0 1 105 111l90-90A29.6 29.6 0 1 1 236.8 63l-91.3 89.5a32 32 0 0 1-13.2 7.8l-33.3 10c-3 1-6.4.1-8.7-2.2Z" fill="#D0D1D4"/><path d="M127.5 38H41c-15 0-27 12-27 27v157.5c0 15 12 27 27 27h153.5c15 0 27-12 27-27V132" stroke="#D0D1D4" stroke-width="28" stroke-linecap="round"/></svg>