<svg xmlns="http://www.w3.org/2000/svg" width="620" height="498" fill="none"><path d="m149.47925 193.5 17-19-60-12.5-59.5-40 36.5-57.5V92l62.5-92-84.5 49-59.5000002 73v23.5l45.0000002 32 98.5 56.5zM300.51556 296.12419V186.04948l-30.34796-31.54429h-64.96804l-43.142 47.206-12.542 118.519 84.781 88.888-11.538 18.582 36.621 69.805h41.136v-201.381l-32-.119-28.701-5.405-33.11-34.149v-32.643l37.123 19.084 24.688 53.113zM466.07616 193.86569l-17-19 60-12.5 59.5-40-36.5-57.499995v27.5l-62.5-92.00000037 84.5 49.00000037 59.5 72.999995v23.5l-45 32-98.5 56.5zM315.03985 296.48988V186.41517l30.34796-31.54429h64.96804l43.142 47.206 12.542 118.519-84.781 88.888 11.538 18.582-36.621 69.805h-41.136v-201.381l32-.119 28.701-5.405 33.11-34.149v-32.643l-37.123 19.084-24.688 53.113z" fill="#ebedee"/></svg>